<svg version="1.1" id="Layer_1" xmlns="http://www.w3.org/2000/svg" xmlns:xlink="http://www.w3.org/1999/xlink" x="0px" y="0px"
	 width="100%" viewBox="0 0 288 288" enable-background="new 0 0 288 288" xml:space="preserve">
<path fill="#000000" opacity="1.000000" stroke="none" 
	d="
M167.751648,145.598923 
	C162.352127,148.517731 159.595917,153.092667 158.516541,158.430161 
	C157.852219,161.715195 156.348846,162.493942 153.463852,162.357254 
	C150.972733,162.239243 148.459641,162.178528 145.977081,162.367004 
	C139.793228,162.836533 135.235336,162.823410 133.111511,154.548599 
	C130.739594,145.307236 120.545128,141.354797 111.212181,144.346390 
	C107.270950,145.609711 105.288902,144.533920 103.734581,141.151276 
	C102.973587,139.495148 102.086922,137.870514 101.057205,136.368729 
	C97.046440,130.519257 95.384079,125.659561 101.651978,119.300140 
	C107.299500,113.570145 105.717560,105.631256 101.791794,98.818184 
	C99.974762,95.664780 100.037994,93.818275 103.790283,92.378494 
	C106.710274,91.258087 109.420334,89.515076 112.087128,87.832344 
	C114.569359,86.266075 116.612823,84.294235 115.511597,80.867897 
	C114.583870,77.981384 115.866203,76.529480 118.618340,75.787941 
	C126.903778,73.555550 132.849564,68.764420 135.210052,60.200253 
	C135.827759,57.959198 137.279556,56.890343 139.588898,56.927113 
	C142.417892,56.972157 145.257156,57.169590 148.074036,57.001060 
	C152.946960,56.709522 156.190720,57.035755 158.283112,63.142265 
	C161.567871,72.728714 172.596283,77.193390 182.511337,74.500343 
	C185.451004,73.701889 187.216141,74.315903 188.668686,76.947830 
	C190.998947,81.170113 193.442902,85.337585 196.026459,89.409157 
	C197.583969,91.863754 197.070801,93.430206 195.030838,95.406769 
	C185.916046,104.238228 185.951935,115.148643 195.133850,123.730736 
	C197.086105,125.555458 197.572845,127.054108 196.234741,129.299240 
	C193.679489,133.586456 191.110397,137.869324 188.709488,142.243149 
	C187.236084,144.927322 185.402313,145.559464 182.551620,144.441803 
	C177.627975,142.511459 172.766235,143.050476 167.751648,145.598923 
M121.291992,104.554337 
	C120.727005,106.731216 122.628555,107.763725 123.537872,109.205307 
	C120.127411,114.096413 121.932503,121.030739 128.258545,127.618782 
	C134.414398,134.029587 141.659454,135.882401 147.219025,132.162186 
	C148.838211,135.610672 151.568909,134.909042 154.406342,133.928802 
	C161.346146,131.531265 166.455017,127.115135 169.860504,120.566498 
	C173.247711,114.052979 171.801743,107.131996 170.614548,100.769264 
	C169.165863,93.005096 163.216202,87.988182 155.744858,85.156227 
	C152.505737,83.928459 149.322784,83.126251 146.584717,86.728600 
	C143.819077,82.984299 140.613998,83.913330 137.402374,85.224274 
	C128.908478,88.691345 123.825966,95.116264 121.291992,104.554337 
M113.443726,102.221680 
	C113.092583,107.701752 112.511116,113.204788 114.110344,118.590240 
	C118.039459,131.821686 129.728394,141.785767 142.356201,142.740875 
	C158.301758,143.946945 171.396118,136.985046 177.601959,123.421257 
	C180.245346,117.643784 181.793350,111.418053 179.750107,103.569267 
	C177.926529,125.239113 170.705795,137.335251 155.810089,140.364929 
	C140.136185,143.552872 130.985443,141.919189 120.365471,128.448975 
	C111.498535,117.202293 112.261795,102.820374 122.344307,86.707176 
	C117.134262,90.814133 115.056580,95.904854 113.443726,102.221680 
M178.044601,99.886368 
	C178.361526,100.237740 178.621643,100.182724 178.712006,99.700172 
	C178.771881,99.380302 178.768753,99.029648 178.708160,98.708961 
	C176.146347,85.150497 156.435349,72.640610 142.175522,75.669838 
	C135.913712,77.000038 129.611023,78.468239 124.548965,84.400703 
	C148.324249,70.830627 169.645020,77.131233 178.044601,99.886368 
M155.651642,67.089333 
	C155.564636,61.092606 150.831223,58.104519 145.663925,60.790512 
	C144.261017,61.519756 143.161591,62.446537 143.576004,64.275764 
	C144.580673,68.710350 151.877213,70.900055 155.651642,67.089333 
z"/>
<path fill="#000000" opacity="1.000000" stroke="none" 
	d="
M95.579277,187.934998 
	C90.905800,184.713821 90.790657,180.463959 92.565659,176.241501 
	C94.372849,171.942474 98.677704,172.812973 102.167694,173.028671 
	C105.344002,173.224960 107.070854,175.553085 107.297211,178.779739 
	C107.549522,182.376251 107.456322,185.939774 103.618973,187.774399 
	C101.540749,188.768005 99.977943,188.008987 99.874214,185.516830 
	C99.764023,182.869690 99.849434,180.214386 99.257980,177.559448 
	C99.257980,180.039520 99.255753,182.519577 99.258652,184.999634 
	C99.261215,187.197174 98.475571,188.549957 95.579277,187.934998 
z"/>
<path fill="#000000" opacity="1.000000" stroke="none" 
	d="
M150.712738,172.765030 
	C155.046417,173.187210 154.534531,176.050644 153.938995,178.396713 
	C153.170471,181.424301 150.756912,179.626083 149.024414,179.507935 
	C146.477783,181.960602 151.154099,188.279846 144.593201,188.226318 
	C138.336685,188.175262 142.432983,182.316391 140.065598,179.510254 
	C137.508713,180.445023 135.114990,180.393814 135.117905,176.369843 
	C135.120621,172.622971 137.624069,172.701874 140.262115,172.745895 
	C143.589447,172.801392 146.918533,172.752747 150.712738,172.765030 
z"/>
<path fill="#000000" opacity="1.000000" stroke="none" 
	d="
M108.660767,182.963501 
	C109.059280,180.548981 107.590599,177.389008 110.505005,177.039429 
	C114.271545,176.587646 118.624550,175.216553 121.839211,178.429916 
	C124.161125,180.750916 123.597206,184.046814 122.801727,186.926163 
	C122.313316,188.694031 120.403015,188.310349 118.938820,188.306610 
	C117.434875,188.302765 116.364166,187.652374 116.103691,186.095108 
	C115.891350,184.825638 115.807083,183.534729 115.634056,181.962860 
	C114.743370,184.535950 116.782036,188.422211 111.869286,188.315353 
	C108.228996,188.236176 108.710587,185.729996 108.660767,182.963501 
z"/>
<path fill="#000000" opacity="1.000000" stroke="none" 
	d="
M196.384735,181.849152 
	C197.623627,184.085510 197.623627,184.085510 203.383316,185.699844 
	C200.407166,189.871872 196.319077,188.358902 193.143539,187.935043 
	C190.000443,187.515518 188.745590,184.421677 189.327209,181.377106 
	C190.381927,175.856033 194.935135,176.698303 198.825897,176.759842 
	C202.599915,176.819504 203.916061,179.112839 203.745850,182.844009 
	C200.860535,183.525818 198.106750,184.708557 196.794571,180.746231 
	C196.744568,180.595200 196.651474,180.458435 196.578461,180.315033 
	C196.512238,180.730270 196.446014,181.145523 196.384735,181.849152 
z"/>
<path fill="#000000" opacity="1.000000" stroke="none" 
	d="
M171.651245,178.481293 
	C171.834396,180.879211 171.940918,182.849731 171.924774,184.819260 
	C171.905350,187.190002 170.805786,188.397659 168.263458,188.342438 
	C165.819412,188.289383 164.567490,187.341705 164.680817,184.809982 
	C164.732208,183.661377 164.647949,182.507172 164.682800,181.357254 
	C164.837173,176.264313 166.528915,175.451477 171.651245,178.481293 
z"/>
<path fill="#000000" opacity="1.000000" stroke="none" 
	d="
M182.953247,176.791992 
	C186.891312,178.517014 188.930359,184.061310 186.912018,186.990341 
	C185.399612,189.185165 182.987076,188.781372 181.210464,187.558228 
	C178.961990,186.010239 180.002045,178.836212 182.953247,176.791992 
z"/>
<path fill="#000000" opacity="1.000000" stroke="none" 
	d="
M162.352051,181.098358 
	C162.313416,183.066498 162.335602,184.569321 162.216919,186.060928 
	C162.056839,188.072739 160.578476,188.292114 158.973526,188.293701 
	C157.328018,188.295334 155.932709,187.920044 155.798416,185.957138 
	C155.684906,184.298172 155.671127,182.629822 155.677475,180.965866 
	C155.685318,178.912155 155.672012,176.884842 158.598572,176.721466 
	C161.482224,176.560501 162.509262,177.972717 162.352051,181.098358 
z"/>
<path fill="#000000" opacity="1.000000" stroke="none" 
	d="
M174.178497,187.990891 
	C171.796799,185.134354 172.735825,182.076004 172.849594,179.198303 
	C172.969574,176.163773 175.394302,176.260300 177.168289,177.326126 
	C180.551788,179.358994 179.318314,182.925186 179.158585,185.921585 
	C179.000473,188.887787 176.563553,188.254410 174.178497,187.990891 
z"/>
<path fill="#000000" opacity="1.000000" stroke="none" 
	d="
M156.123825,173.877472 
	C154.656677,171.846542 154.993027,170.385513 157.038879,169.860855 
	C158.724152,169.428665 160.636459,169.120483 162.124893,170.529449 
	C163.104538,171.456802 163.012268,172.689804 162.186264,173.611725 
	C160.487091,175.508209 158.461533,175.244019 156.123825,173.877472 
z"/>
<path fill="#000000" opacity="1.000000" stroke="none" 
	d="
M137.814087,107.682495 
	C147.592072,104.178589 147.617935,104.174782 149.059799,113.957733 
	C149.512848,117.031631 150.666321,120.066986 149.816681,123.836411 
	C146.984283,121.023827 147.072556,117.602509 146.330811,114.600914 
	C145.506027,111.263268 144.043457,109.805588 140.376617,110.564308 
	C137.381165,111.184113 134.249954,111.753853 130.517944,110.962219 
	C132.613266,108.496170 135.378998,108.868706 137.814087,107.682495 
z"/>
</svg>