<?xml version="1.0" standalone="no"?>
<!DOCTYPE svg PUBLIC "-//W3C//DTD SVG 20010904//EN"
 "http://www.w3.org/TR/2001/REC-SVG-20010904/DTD/svg10.dtd">
<svg version="1.0" xmlns="http://www.w3.org/2000/svg"
 width="300.000000pt" height="300.000000pt" viewBox="0 0 300.000000 300.000000"
 preserveAspectRatio="xMidYMid meet">

<g transform="translate(0.000000,300.000000) scale(0.100000,-0.100000)"
fill="#000000" stroke="none">
<path d="M1380 2226 c-67 -19 -102 -40 -153 -92 -65 -66 -90 -136 -85 -234 5
-86 33 -145 101 -213 59 -59 117 -81 212 -82 66 0 90 5 135 26 57 27 122 85
146 130 40 78 57 185 35 227 -5 9 -17 36 -27 60 -53 129 -231 216 -364 178z
m197 -72 c79 -38 141 -128 143 -206 0 -20 -5 -28 -17 -29 -17 -1 -17 -2 0 -6
38 -10 4 -118 -56 -181 -94 -99 -262 -108 -361 -21 -66 58 -86 97 -93 178 -7
83 11 142 60 198 88 101 204 124 324 67z"/>
<path d="M1436 1953 c-4 -5 -28 -16 -54 -25 l-47 -17 55 2 c54 2 55 2 66 -33
12 -35 12 -35 10 19 -1 51 -13 71 -30 54z"/>
<path d="M1550 1290 c0 -16 7 -20 30 -20 23 0 30 4 30 20 0 16 -7 20 -30 20
-23 0 -30 -4 -30 -20z"/>
<path d="M944 1270 c-25 -10 -38 -50 -29 -91 6 -27 30 -49 54 -49 12 0 16 136
4 143 -5 3 -18 1 -29 -3z"/>
<path d="M996 1273 c-3 -4 -6 -37 -6 -75 0 -54 3 -68 15 -68 43 0 73 84 43
122 -15 18 -43 29 -52 21z"/>
<path d="M1350 1246 c0 -39 10 -45 35 -20 21 22 15 48 -13 52 -19 3 -22 -1
-22 -32z"/>
<path d="M1410 1206 l0 -76 30 0 31 0 -3 73 c-3 70 -4 72 -30 75 l-28 3 0 -75z"/>
<path d="M1480 1251 c0 -20 6 -30 20 -34 17 -4 20 0 20 29 0 27 -4 34 -20 34
-15 0 -20 -7 -20 -29z"/>
<path d="M1080 1185 c0 -54 0 -55 30 -55 30 0 30 1 30 55 0 54 0 55 -30 55
-30 0 -30 -1 -30 -55z"/>
<path d="M1160 1185 c0 -54 0 -55 30 -55 27 0 30 3 30 33 0 37 -24 77 -46 77
-10 0 -14 -14 -14 -55z"/>
<path d="M1550 1185 c0 -54 0 -55 30 -55 30 0 30 1 30 55 0 54 0 55 -30 55
-30 0 -30 -1 -30 -55z"/>
<path d="M1640 1185 c0 -54 0 -55 30 -55 30 0 30 1 30 55 0 54 0 55 -30 55
-30 0 -30 -1 -30 -55z"/>
<path d="M1720 1185 c0 -54 0 -55 30 -55 29 0 30 2 30 45 0 34 -5 47 -19 55
-35 18 -41 12 -41 -45z"/>
<path d="M1800 1185 c0 -54 0 -55 30 -55 28 0 30 2 30 39 0 41 -20 71 -46 71
-10 0 -14 -14 -14 -55z"/>
<path d="M1906 1224 c-30 -30 -10 -94 30 -94 10 0 14 14 14 55 0 59 -13 70
-44 39z"/>
<path d="M1960 1210 c0 -27 3 -30 30 -30 22 0 30 5 30 18 0 23 -19 42 -42 42
-13 0 -18 -8 -18 -30z"/>
<path d="M1960 1145 c0 -9 9 -15 24 -15 13 0 26 7 30 15 4 11 -2 15 -24 15
-20 0 -30 -5 -30 -15z"/>
</g>
</svg>
